/* XPM */
static char * flr2_xpm[] = {
"64 64 484 2",
"  	c #73C8A1",
". 	c #73C7A0",
"+ 	c #71C8A0",
"@ 	c #71C9A1",
"# 	c #76C8A1",
"$ 	c #78C6A1",
"% 	c #72C4A0",
"& 	c #59B590",
"* 	c #54B891",
"= 	c #74C8A1",
"- 	c #73CAA2",
"; 	c #72CAA2",
"> 	c #76C8A2",
", 	c #74CAA2",
"' 	c #6EC9A0",
") 	c #63C197",
"! 	c #6EC19A",
"~ 	c #76C5A1",
"{ 	c #72C6A3",
"] 	c #51B08B",
"^ 	c #4FB78F",
"/ 	c #75C8A1",
"( 	c #70C69F",
"_ 	c #67C098",
": 	c #62BF96",
"< 	c #6FC9A1",
"[ 	c #75C8A2",
"} 	c #6FCAA1",
"| 	c #57B78D",
"1 	c #61BA91",
"2 	c #6FC59E",
"3 	c #70C7A3",
"4 	c #4FAE89",
"5 	c #52B78F",
"6 	c #77C9A3",
"7 	c #58B48C",
"8 	c #52B388",
"9 	c #6CC89F",
"0 	c #75C4A0",
"a 	c #73C6A0",
"b 	c #72C9A1",
"c 	c #5DB78F",
"d 	c #62BA93",
"e 	c #6EC6A0",
"f 	c #6CC6A0",
"g 	c #56B58D",
"h 	c #57B78F",
"i 	c #73C6A1",
"j 	c #6BC69E",
"k 	c #56B68D",
"l 	c #54B48A",
"m 	c #6EC7A0",
"n 	c #76C6A1",
"o 	c #73C69F",
"p 	c #6FC59D",
"q 	c #5EB992",
"r 	c #54B089",
"s 	c #68C39C",
"t 	c #6DC69F",
"u 	c #6CC49E",
"v 	c #64BE98",
"w 	c #53B28A",
"x 	c #63C19A",
"y 	c #72C7A1",
"z 	c #73C7A1",
"A 	c #74C9A2",
"B 	c #75C9A2",
"C 	c #67C29B",
"D 	c #59B78F",
"E 	c #72C8A3",
"F 	c #74C8A3",
"G 	c #66C09A",
"H 	c #57B68D",
"I 	c #69C39D",
"J 	c #76C8A5",
"K 	c #76C6A2",
"L 	c #72C8A1",
"M 	c #70C7A0",
"N 	c #75C6A1",
"O 	c #75C5A0",
"P 	c #73C7A2",
"Q 	c #75CAA5",
"R 	c #72C8A4",
"S 	c #71C7A2",
"T 	c #74C9A5",
"U 	c #70C9A3",
"V 	c #6DC7A1",
"W 	c #72C6A2",
"X 	c #75C7A2",
"Y 	c #73C9A2",
"Z 	c #70C7A1",
"` 	c #6FC49E",
" .	c #75C5A1",
"..	c #7FCCAA",
"+.	c #87D5B3",
"@.	c #77CAA6",
"#.	c #73C9A4",
"$.	c #71C9A3",
"%.	c #74C9A3",
"&.	c #71C8A2",
"*.	c #72C7A0",
"=.	c #72C6A0",
"-.	c #73C8A2",
";.	c #7ACEAA",
">.	c #77CBA7",
",.	c #70C4A0",
"'.	c #80CDAB",
").	c #8DD9B7",
"!.	c #7BCCA8",
"~.	c #75CBA6",
"{.	c #7ACEA8",
"].	c #71C6A0",
"^.	c #76C9A2",
"/.	c #77CAA4",
"(.	c #77CAA3",
"_.	c #78CCA8",
":.	c #85D9B5",
"<.	c #7CD0AC",
"[.	c #71C5A1",
"}.	c #7ECFAC",
"|.	c #8BDAB7",
"1.	c #7CCCA9",
"2.	c #75C7A4",
"3.	c #78CBA7",
"4.	c #80D5AE",
"5.	c #70C59E",
"6.	c #76CBA4",
"7.	c #71C69F",
"8.	c #74C8A4",
"9.	c #79CDA9",
"0.	c #7BCFAB",
"a.	c #79CCA8",
"b.	c #78C9A6",
"c.	c #84D3B0",
"d.	c #80CFAD",
"e.	c #71C8A1",
"f.	c #68BF97",
"g.	c #69C098",
"h.	c #70C5A1",
"i.	c #75C6A3",
"j.	c #86D3B1",
"k.	c #84D1AF",
"l.	c #6EC39C",
"m.	c #71CBA3",
"n.	c #63BD95",
"o.	c #64BE95",
"p.	c #72CCA3",
"q.	c #6DC69E",
"r.	c #6FC49D",
"s.	c #75C7A1",
"t.	c #72C9A2",
"u.	c #74C7A1",
"v.	c #74C8A2",
"w.	c #75C9A3",
"x.	c #76CAA4",
"y.	c #72C8A2",
"z.	c #6EC7A1",
"A.	c #61B993",
"B.	c #6BC19B",
"C.	c #74CAA4",
"D.	c #70CCA3",
"E.	c #63BC94",
"F.	c #66BC95",
"G.	c #51B085",
"H.	c #64BD95",
"I.	c #74CAA3",
"J.	c #72C69F",
"K.	c #71C59E",
"L.	c #6DC69D",
"M.	c #6BC59C",
"N.	c #76CAA3",
"O.	c #74C7A0",
"P.	c #70C8A2",
"Q.	c #63BE98",
"R.	c #5DBB94",
"S.	c #62C199",
"T.	c #6BC099",
"U.	c #6EC49C",
"V.	c #62BC93",
"W.	c #5CBB91",
"X.	c #68C39A",
"Y.	c #74C6A0",
"Z.	c #76C7A1",
"`.	c #6DC79E",
" +	c #67BF97",
".+	c #65BF96",
"++	c #75CBA4",
"@+	c #71C7A0",
"#+	c #6DC8A1",
"$+	c #56B78E",
"%+	c #51B68C",
"&+	c #77C8A3",
"*+	c #72C59F",
"=+	c #6CC79E",
"-+	c #58B48A",
";+	c #70C8A0",
">+	c #76C39F",
",+	c #5EBF94",
"'+	c #58B88D",
")+	c #64BC94",
"!+	c #63BD94",
"~+	c #73C9A1",
"{+	c #6AC39A",
"]+	c #66BF97",
"^+	c #70C9A0",
"/+	c #6FC79F",
"(+	c #74C7A3",
"_+	c #75CAA6",
":+	c #6AC49D",
"<+	c #67C39C",
"[+	c #69C199",
"}+	c #76C49F",
"|+	c #57B78C",
"1+	c #4CAE83",
"2+	c #6BC59D",
"3+	c #63BB93",
"4+	c #65BD95",
"5+	c #75CBA3",
"6+	c #63C096",
"7+	c #5EB990",
"8+	c #71CBA2",
"9+	c #74C7A2",
"0+	c #73C6A2",
"a+	c #74C6A2",
"b+	c #70C9A2",
"c+	c #57B68C",
"d+	c #67BD96",
"e+	c #6AC099",
"f+	c #64C198",
"g+	c #5CBC91",
"h+	c #63BE95",
"i+	c #73CBA3",
"j+	c #69C59C",
"k+	c #5DB98F",
"l+	c #70C79F",
"m+	c #6CC19B",
"n+	c #53AD84",
"o+	c #5BB88E",
"p+	c #6FC7A0",
"q+	c #6BC19A",
"r+	c #6EC49D",
"s+	c #6BC29A",
"t+	c #75CAA3",
"u+	c #72C9A0",
"v+	c #6EC89F",
"w+	c #72C8A0",
"x+	c #7ECBA7",
"y+	c #9CDBBB",
"z+	c #8CD4B1",
"A+	c #70C9A1",
"B+	c #76C8A3",
"C+	c #82CFAB",
"D+	c #79CCA6",
"E+	c #73C59F",
"F+	c #7EC8A5",
"G+	c #9FDABC",
"H+	c #92D6B5",
"I+	c #82D1AC",
"J+	c #81CBA8",
"K+	c #77C7A2",
"L+	c #7FCDA8",
"M+	c #9EDFBF",
"N+	c #89D0AE",
"O+	c #7AC5A1",
"P+	c #80CDA9",
"Q+	c #9BDFBE",
"R+	c #8ED7B5",
"S+	c #72C29D",
"T+	c #7BCBA6",
"U+	c #94DCBA",
"V+	c #96D7B7",
"W+	c #7EC9A5",
"X+	c #75C6A0",
"Y+	c #8AD0AE",
"Z+	c #8ED2B1",
"`+	c #8ED4B2",
" @	c #7ECAA7",
".@	c #81CEAA",
"+@	c #84D1AD",
"@@	c #8ED8B5",
"#@	c #8BD1AF",
"$@	c #85CBA9",
"%@	c #75C49F",
"&@	c #9CE2BF",
"*@	c #7EC9A6",
"=@	c #71C29D",
"-@	c #89D4B0",
";@	c #96DEBB",
">@	c #7EC7A4",
",@	c #73C5A1",
"'@	c #7FD1AD",
")@	c #85D7B3",
"!@	c #77C9A5",
"~@	c #76C8A4",
"{@	c #78CAA6",
"]@	c #73C7A3",
"^@	c #6AC79F",
"/@	c #60BB94",
"(@	c #6FC7A1",
"_@	c #72C7A2",
":@	c #74C5A0",
"<@	c #73C5A0",
"[@	c #71C59F",
"}@	c #77CCA5",
"|@	c #75C8A3",
"1@	c #7ED0AC",
"2@	c #87D9B5",
"3@	c #7ACCA8",
"4@	c #70C39F",
"5@	c #6EC39E",
"6@	c #73C8A3",
"7@	c #6DC7A0",
"8@	c #5CB68F",
"9@	c #73CAA5",
"0@	c #6AC19B",
"a@	c #67C399",
"b@	c #72CBA3",
"c@	c #79CDA7",
"d@	c #81D3AF",
"e@	c #78CDA6",
"f@	c #7ACFA8",
"g@	c #7FD4AD",
"h@	c #84D9B2",
"i@	c #77CAA5",
"j@	c #7DCFAB",
"k@	c #86D8B4",
"l@	c #79CBA7",
"m@	c #6ABE99",
"n@	c #61BB95",
"o@	c #70CAA4",
"p@	c #5EB690",
"q@	c #5BB790",
"r@	c #52B68A",
"s@	c #69C79D",
"t@	c #7ED2AC",
"u@	c #75C7A3",
"v@	c #82D4B0",
"w@	c #77CBA5",
"x@	c #83D8B1",
"y@	c #7DD0AB",
"z@	c #7BCDA9",
"A@	c #76C6A3",
"B@	c #6CC19D",
"C@	c #5ABA92",
"D@	c #5DBA93",
"E@	c #71C39F",
"F@	c #71C4A0",
"G@	c #6AC09B",
"H@	c #62BD96",
"I@	c #60BC94",
"J@	c #7BCFA9",
"K@	c #7CCEAA",
"L@	c #7CD1AA",
"M@	c #7BD0A9",
"N@	c #85D9B3",
"O@	c #80D3AE",
"P@	c #61C097",
"Q@	c #50AD85",
"R@	c #6DBF9B",
"S@	c #72C5A0",
"T@	c #5FB892",
"U@	c #6AC29B",
"V@	c #75C7A0",
"W@	c #86D9B4",
"X@	c #7FD2AD",
"Y@	c #79CEA7",
"Z@	c #6EC29B",
"`@	c #73C6A3",
" #	c #74C4A4",
".#	c #76C5A6",
"+#	c #74C7A4",
"@#	c #7BCBAB",
"##	c #7BCCAB",
"$#	c #71C89F",
"%#	c #76C9A6",
"&#	c #86D6B6",
"*#	c #86D5B6",
"=#	c #87D7B7",
"-#	c #7ED3AC",
";#	c #7DCEAA",
">#	c #77C6A3",
",#	c #79C7A5",
"'#	c #89D7B5",
")#	c #86D4B2",
"!#	c #82D6B0",
"~#	c #80CFAC",
"{#	c #7AC7A5",
"]#	c #7DCBA8",
"^#	c #86D7B4",
"/#	c #74C9A4",
"(#	c #75C9A5",
"_#	c #70C5A0",
":#	c #6DC39C",
"<#	c #7DD2AB",
"[#	c #86DBB3",
"}#	c #63B993",
"|#	c #7BCFA8",
"1#	c #7DD0A9",
"2#	c #89DCB7",
"3#	c #79CCA7",
"4#	c #73C49F",
"5#	c #79CAA5",
"6#	c #7FD2AC",
"7#	c #6BC39D",
"8#	c #69C29B",
"9#	c #6DC49D",
"0#	c #61B691",
"a#	c #70C59F",
"b#	c #70C8A1",
"c#	c #65C098",
"d#	c #80D4AE",
"e#	c #7ACDA8",
"f#	c #80D2AC",
"g#	c #85D6B0",
"h#	c #7ACBA6",
"i#	c #84D6B2",
"j#	c #7ACDA9",
"k#	c #74CBA6",
"l#	c #65C09A",
"m#	c #5EBC94",
"n#	c #6CC59F",
"o#	c #73C4A1",
"p#	c #6DC59F",
"q#	c #64B995",
"r#	c #71C5A0",
"s#	c #69C49D",
"t#	c #55B78E",
"u#	c #54B68B",
"v#	c #6CC49C",
"w#	c #7DD1AB",
"x#	c #79CAA6",
"y#	c #7FD0AC",
"z#	c #78C9A5",
"A#	c #83D5B1",
"B#	c #78CBA6",
"C#	c #7CCDA7",
"D#	c #82D3AF",
"E#	c #84D2AF",
"F#	c #80CEAC",
"G#	c #6EC5A0",
"H#	c #5EBB93",
"I#	c #57B28C",
"J#	c #6DC19D",
"K#	c #70C6A1",
"L#	c #63BD96",
"M#	c #60BF97",
"N#	c #6BC79E",
"O#	c #78CCA6",
"P#	c #78C9A4",
"Q#	c #89DAB6",
"R#	c #7ACBA7",
"S#	c #8AD8B5",
"T#	c #84D2B0",
"U#	c #77CCA7",
"V#	c #63BE97",
"W#	c #4DAA84",
"X#	c #6AC29C",
"Y#	c #6EC7A2",
"Z#	c #5DB790",
"`#	c #64BF97",
" $	c #88DAB6",
".$	c #76C7A2",
"+$	c #7ED0AB",
"@$	c #7BCEA9",
"#$	c #7FCDAA",
"$$	c #7ECCAA",
"%$	c #73C4A0",
"&$	c #75C8A4",
"*$	c #69C29C",
"=$	c #6AC59E",
"-$	c #65BF98",
";$	c #6CC59E",
">$	c #78C7A3",
",$	c #78C6A3",
"'$	c #77C8A4",
")$	c #82CFAD",
"!$	c #81CFAD",
"~$	c #76CAA5",
"{$	c #7BD0AB",
"]$	c #85D3B0",
"^$	c #7FD3AE",
"/$	c #7CD0AB",
"($	c #81D1AD",
"_$	c #7ECEAA",
"                                                          . .   + @ # $ % & * = . - ; -                                         ",
"                                                          = > , ' ) ! ~ { ] ^ / ( _ : <                                         ",
"                                                          [ > , } | 1 2 3 4 5 6 ( 7 8 9                                         ",
"                                                          / 0 a b c d e f g h i j k l m                                         ",
"                                                          = n o   p q r s t u v w x e y                                         ",
"                                                          z z A   B C D t E F G H I J K                                         ",
"                                                          L M L N O P Q R S T J U V W X                                         ",
"                                                          Y Z ` X  ...+.@.#.$. .%.&.&.L   *.    = [ [ =.= *.*.                  ",
"                                                          -.T ;.>.,.'.).!.W ~.{.].L A         A / ^./.o (.A A                   ",
"                                                          y _.:.<.[.}.|.1.2.3.4.5.  6.7.*.A   *.A 7.7.  A *.                    ",
"                                                          z 8.9.0.>.@.a.b.c.d.A         *.7.*.*.e.f.g.b + A A   *.              ",
"                                                          z P [._.9.h.W i.j.k.5.  7.*.A *.l.5.A m.n.o.p.q.r.5.*.A               ",
"    L . s.s.[ =.t.@ 7.u./.u.^.u.=                           -.y v.w.  A   x./.    *.  y.z.A.B.C.D.E.F.[ 7.G.H.I.s.B             ",
"    *.7.J.z u.K.L.M.7.a N.= O.K.                                                      y.P.Q.R.S.*.T.U.+ V.W.X.- Y.=             ",
"    Z.v.`.q.A 7. +.+*.z ++L Y @+                                                      w.8.#+$+%+&+*+b =+-+`.;+  [ z             ",
"    >+. ,+'+2 =.)+!+~+@+{+]+^+/+                                                      v.(+_+:+<+*.5.+ ; [+*.= A A               ",
"    }+= |+1+2+@+3+4+5+p.6+7+8+@                                                       v.9+0+X a+b+; L a Z.s.> N.A A             ",
"    N . !+c+) M d+e+y f+g+h+*.u.                                                        *.*.*.*.                    *.*.        ",
"    / =.i+j+k+l+@+@+m+n+o+p+L *+.                                                       *.*.*.*.                    A A   7.    ",
"    B . A @+q+L Y Y r+d+s+  A z                                                         *.*.*.*.                  *.            ",
"    A t+u.O.[ A L Y Y v.X u.*.A                                                         *.*.*.*.                  ++A 7.*.t+    ",
"  u.=     z z         . u.=                                                                               u+v+w+x+y+z+@+/+a 7.A+",
"[ A                                                                                                     B+C+D+E+F+G+H+*.A I+J+s.",
"K+t+@+                                                                                                  L+M+N+O+P+Q+R+S+T+U+V+W+",
"X+6.                                                                                                    &+Y+Z+`+ @.@P++@@@#@$@%@",
"  = =                                                                                                     s.z+&@*@=.=@-@;@>@a A+",
"                                                                                                            B N.=     B N.=     ",
"                                                                                                                                ",
"                                                                                                                                ",
"                                                                                                                                ",
"                                                                                                                                ",
"                                                                                                                                ",
"                                                                                                                                ",
"                                                                                                                                ",
"                                                                                                                                ",
"                t+A *.9+,@'@)@!@a+~@,@{@]@]@a+,@P ^@/@(@_@B+:@<@O.7.*.                          A   *.*.[@a+~@~@'@w.            ",
"              *.*.}@}@|@% 1@2@!@a+{@3@~@(+4@5@6@]@7@8@(@9@0@a@b@  [@.                           *.A 7.t+c@a+a+i.d@x.7.e@f@7.    ",
"                  g@h@i@% 1@2@!@a+j@k@l@!@m@n@o@8.Z p@P.z.q@r@s@+ s.=                           7.A 7.6.t@u@a+a+v@w@*.g@x@6.    ",
"            A A   }@f@y@3@3@1@{@z@1@j@!@A@B@C@D@E@F@G@U H@I@]+;+Y u.                                7.A J@'@3@u@K@=.t+L@M@6.    ",
"            A *.  *.t+N@d@9+,@{@2@O@i |@X Q P@Q@R@S@6@b+T@U@Z.V@[   w+  -.P 9+                  A     *.w@W@X@a+a+*.M@Y@*.t+    ",
"                      }@e@A   A }@}@t+    t+7.Z@*.A   7.r.r.        u+L `@ #.#*.*.*.*.*.                A e@6.~+*.              ",
"                          *.*.  7.7.*.  7.  t+A   A A A             u+-.+#@###*.*.*.*.*.                  7.7.*.                ",
"                      *.7.*.          *.*.7.7.  A *.*.  A           $#Y %#&#*#*.*.*.*.*.                  A     *.              ",
"                          t+A *.        A *.*.A         *.*.        u+A +#=#*#*.*.*.*.*.                  A     *.              ",
"                          A                     *.        *.  A *.-#;#>#,#'#)#( A g@!#                                          ",
"                                                            A   7.}@~#'.{#..]#B -#f@Y@                                          ",
"                                                            A     p '@^#!.i.i.f@h@6.A A                                         ",
"                                                            *.A A *.P _.]@]@/#t+e@A *.                                          ",
"                                                          *.*.  7.7.]@(#[._@_#A A     A                                         ",
"                        A A A                       I.e.L L                                               *.*.*.                ",
"                        t+A                       Y L Y L *.                                              A     t+A             ",
"                      A A 6.e@A                   *.:#Y @+L                                             A t+  A e@t+            ",
"                      t+  <#[#}@                  q+}#2 ( *.                                                *.}@L@}@            ",
"                L |#1#[ [@X@2#3#4#5#6#w@#.7#8#&.9+9#0#a#b#c#h+( [                                 A *.6.{.v.z 3#d#w@=.e#y@w.    ",
"            ~+Y   f#g#h#~@'@)@3@{#..i#j#k#l#m#n#o#p#q#r#s#t#u#v#N                               *.A *.6.w#3@u@x#y#z#!@v@A#B#    ",
"            w+l+7./ C#D#K@!@{@!@E#F#x#]@_@G#H#I#J#z.K#(#L#M#N#t.*.J.                            7.A   *.O#A#z@~@z#a+z@j@l@|@    ",
"            L @+*.a P#Q#A#u@a+R#S#T#i.W a+U#V#W#X#Y##.W Z#`#u.+ M Y.=                             A   7.w@ $'@a+a+u@j@j@~@u@    ",
"            Y @+*.s..$+$@$~@|@b.#$$$%$]@o#&$*$H#=$z.y.]@-$;$>$L @ s.u.  z                       A       t+'@z@i ~@~@3@3@u@a+    ",
"                      v.v.      v.v.z   z   L @+L L     *.  B A I.. 6@8.,@,#,$L *.7.*.A                   A v.      v.v.        ",
"                                                            A   *.*./#8.'$)$!$      A                                           ",
"                                                            A   7.6.~$W '$)#j.7.  N.6.7.                                        ",
"                                                              A   -#{$(+~@+.]$*.6.<#4.                                          ",
"                                                              A A <#^$/$i@($_$*.L@L@L@A                                         ",
"                                                                  L {.x@6.*.7.e@x@6.r.A                                         "};
